<svg xmlns="http://www.w3.org/2000/svg" viewBox="107.263 82.009 160 78.602">
  <defs>
    <style>
      .cls-1 {
        fill: #c39d4a;
      }
    </style>
  </defs>
  <g id="Logo" transform="translate(3 2)">
    <path id="Path_1" data-name="Path 1" class="cls-1" d="M159.741,0H21.437c-.1,1.45-.207,2.951-.259,4.453C9.01,7.715,0,18.537,0,31.43c0,15.43,12.945,27.961,28.841,27.961A28.911,28.911,0,0,0,42.2,56.181,69.914,69.914,0,0,0,62.032,69.748v2.641A6.232,6.232,0,0,0,68.246,78.6H112.88a6.232,6.232,0,0,0,6.214-6.214V69.748A69.758,69.758,0,0,0,160,6.162,60.671,60.671,0,0,0,159.741,0ZM28.841,51.107c-11.34,0-20.557-8.854-20.557-19.676a19.757,19.757,0,0,1,13.2-18.382A69.545,69.545,0,0,0,36.35,49.709,21.25,21.25,0,0,1,28.841,51.107Zm37.437-1.864c-.362-.518-.673-1.036-.984-1.553-5.955-11.029.932-26.3,15.43-34.175C92.013,7.4,104.6,7.56,112.414,13.152c-10.2,3.935-18.175,12.427-25.424,20.194C79.9,40.958,73.528,47.741,66.278,49.243Zm36.142,4.142C91.34,59.392,79.068,59.34,71.2,54.058c7.456-3,13.877-9.838,20.194-16.57,7.715-8.233,15.586-16.673,25.735-19.521.259.414.518.777.725,1.191C123.858,30.188,116.919,45.463,102.421,53.385Z" transform="translate(104.263 80.009)"/>
  </g>
</svg>
