<svg id="Layer_1" data-name="Layer 1" xmlns="http://www.w3.org/2000/svg" viewBox="0 0 362.31 468.78"><defs><style>.cls-1{fill:#f6c358;}.cls-2{fill:#fcd462;}.cls-3{fill:#64798a;}.cls-4{fill:#44c4a1;}.cls-5{fill:#ebf0f3;}.cls-6{fill:#e1e6e9;}</style></defs><title>usr-fallback</title><rect class="cls-1" x="132.7" y="229.01" width="96.87" height="84.53"/><path class="cls-2" d="M275.28,141.19c0,60.49-42.15,134.76-94.14,134.76S87,201.68,87,141.19s42.15-84.3,94.14-84.3S275.28,80.7,275.28,141.19Z"/><path class="cls-3" d="M117.61,138.09c1.52-10.06,6-20.08,14.16-26.18,8.73-6.52,20.21-7.68,31.07-8.61l42.33-3.64c13.89-1.19,28.77-2.18,40.88,4.74,3.46,2,6.67,4.69,8.25,8.35,1.34,3.09,1.4,6.56,1.45,9.93q.6,39.54,4.33,79a3.24,3.24,0,0,0,6.44.06c.85-7.32.85-15,3.17-22,1.92-5.77,5.4-10.89,7.84-16.47,4-9.05,5.09-19,6.16-28.85.66-6,1.32-12.07.23-18s-4.17-11.76-9.4-14.74c9.9-3.94,16.26-14.07,18.53-24.48S294.15,56,293,45.39a114.69,114.69,0,0,0-14.12,18.35c1.07-.34,1.58-1.54,1.89-2.63,3.33-11.76-1.51-24.62-9.46-33.9S252.59,11.55,242.07,5.33c-1.17-.69-2.65-1.38-3.79-.66A3.32,3.32,0,0,0,237.07,7,12.16,12.16,0,0,0,241,17.82,84.28,84.28,0,0,0,182,.32,12.2,12.2,0,0,0,184.52,9a99.78,99.78,0,0,0-67.09,1.11,17.5,17.5,0,0,0,5.9,6.34,98.92,98.92,0,0,0-40.8,18.13l7.68,1.91C81.92,41.09,75.91,49.07,72,57.7S66.09,75.69,64.1,85a28.88,28.88,0,0,0,16.67-13.1,105.62,105.62,0,0,0-7.91,17.31,8,8,0,0,0-.62,4.46c1,4.07,6.68,4.19,10.79,3.38a50.16,50.16,0,0,1-5.48,19.46c2.93-1.47,6.65.52,8.23,3.39s1.58,6.32,1.55,9.6L87,164.7c-.05,5.39-.09,10.83,1.12,16.07a68.06,68.06,0,0,0,4.32,11.85l11.84,27.12c.6,1.39,2.68,1.76,4,1,.33-14.84,2.21-28.32,6.94-42.39C119.73,164.87,115.49,152.17,117.61,138.09Z"/><path class="cls-4" d="M362.31,421.34v47.44H0V421.34A129.57,129.57,0,0,1,88.37,298.46l36.75-12.31,7.57-2.56v.06c.06,16.5,24.18,24.81,48.43,24.94,24.25-.13,48.32-8.38,48.44-24.88v-.12h.06l7.57,2.56,36.75,12.31A129.57,129.57,0,0,1,362.31,421.34Z"/><path class="cls-5" d="M238.56,296c0,18.69-13.81,33.75-30.87,33.75-11.32,0-21.19-6.62-26.57-16.56-5.37,9.94-15.25,16.56-26.56,16.56-17,0-30.87-15.06-30.87-33.75a34.18,34.18,0,0,1,1.43-9.81l7.57-2.56v.06c5.37,9.88,15.25,16.5,26.56,16.5A28.81,28.81,0,0,0,176.94,294c.18-2.69,8.25-2.69,8.37,0a29,29,0,0,0,17.75,6.12c11.25,0,21.13-6.62,26.5-16.44,0-.06.06-.06.06-.12l7.57,2.56A36.38,36.38,0,0,1,238.56,296Z"/><circle class="cls-5" cx="181.16" cy="395.98" r="12.5"/><path class="cls-6" d="M168.66,396a12.5,12.5,0,0,0,25,0Z"/><circle class="cls-5" cx="181.16" cy="437.65" r="12.5"/><path class="cls-6" d="M168.66,437.65a12.5,12.5,0,0,0,25,0Z"/><circle class="cls-5" cx="181.16" cy="354.32" r="12.5"/><path class="cls-6" d="M168.66,354.32a12.5,12.5,0,0,0,25,0Z"/></svg>